<svg viewBox="0 0 16 16" xmlns="http://www.w3.org/2000/svg">
<path d="M15.76 6.77L15.67 6.42H8.23V9.58H12.68C12.4317 10.5443 11.8672 11.3974 11.0767 12.0029C10.2863 12.6084 9.3156 12.9313 8.32 12.92C7.0208 12.9093 5.77254 12.4135 4.81999 11.53C4.35174 11.0685 3.97912 10.5191 3.72344 9.9134C3.46777 9.3077 3.33407 8.6575 3.33 8C3.34511 6.6795 3.86792 5.41544 4.79 4.47002C5.7291 3.58038 6.9764 3.08932 8.27 3.10002C9.3779 3.10855 10.4446 3.52101 11.27 4.26002L13.47 2.00002C12.02 0.706381 10.1432 -0.00589844 8.2 2.15614e-05C7.131 -0.00632844 6.0713 0.197932 5.08127 0.601152C4.09125 1.00436 3.19034 1.59863 2.43 2.35002C0.983693 3.8523 0.168273 5.85182 0.151523 7.9371C0.134783 10.0224 0.918004 12.0347 2.34 13.56C3.12784 14.3449 4.06422 14.965 5.09441 15.3839C6.1246 15.8029 7.2279 16.0123 8.34 16C9.3484 16.0075 10.3479 15.8102 11.2779 15.42C12.2078 15.0298 13.0488 14.4549 13.75 13.73C15.1259 12.2171 15.8702 10.2347 15.83 8.19C15.8408 7.7156 15.8174 7.2411 15.76 6.77Z" />
</svg>
