<svg viewBox="0 0 806 878" xmlns="http://www.w3.org/2000/svg">
<path d="M805.286 729.889C805.286 775.579 791.389 811.663 763.594 838.141C735.8 864.618 698.839 877.857 652.71 877.857H153.29C107.21 877.857 70.2488 864.618 42.4058 838.141C14.5627 811.663 0.6656 775.579 0.714361 729.889C0.714361 709.702 1.37264 689.978 2.68921 670.717C4.00579 651.456 6.66331 630.683 10.6618 608.399C14.6603 586.115 19.7071 565.44 25.8024 546.374C31.8976 527.308 40.0896 508.73 50.3784 490.639C60.6671 472.548 72.4675 457.115 85.7795 444.339C99.0915 431.564 115.378 421.373 134.639 413.766C153.9 406.159 175.136 402.355 198.346 402.355C201.76 402.355 209.757 406.451 222.337 414.643C234.918 422.835 249.108 431.978 264.906 442.072C280.705 452.166 301.283 461.309 326.639 469.501C351.995 477.693 377.424 481.789 402.927 481.789C428.429 481.789 453.859 477.693 479.215 469.501C504.571 461.309 525.149 452.166 540.948 442.072C556.746 431.978 570.936 422.835 583.517 414.643C596.097 406.451 604.094 402.355 607.508 402.355C630.767 402.355 652.003 406.159 671.215 413.766C690.427 421.373 706.714 431.564 720.074 444.339C733.435 457.115 745.235 472.548 755.475 490.639C765.715 508.73 773.907 527.308 780.051 546.374C786.195 565.44 791.242 586.115 795.192 608.399C799.142 630.683 801.799 651.456 803.165 670.717C804.53 689.978 805.188 709.702 805.139 729.889H805.286ZM622.429 219.571C622.429 280.134 600.998 331.846 558.136 374.707C515.274 417.569 463.562 439 403 439C342.438 439 290.726 417.569 247.864 374.707C205.002 331.846 183.571 280.134 183.571 219.571C183.571 159.009 205.002 107.297 247.864 64.4354C290.726 21.5737 342.438 0.142883 403 0.142883C463.562 0.142883 515.274 21.5737 558.136 64.4354C600.998 107.297 622.429 159.009 622.429 219.571Z" />
</svg>
